<svg xmlns="http://www.w3.org/2000/svg" xmlns:xlink="http://www.w3.org/1999/xlink" width="61" height="61" viewBox="0 0 61 61">
  <defs>
    <clipPath id="clip-path">
      <rect id="Rectángulo_126" data-name="Rectángulo 126" width="61" height="61" transform="translate(-0.436 0)" fill="#fddcd1"/>
    </clipPath>
  </defs>
  <g id="Grupo_49" data-name="Grupo 49" transform="translate(0.436)">
    <g id="Grupo_44" data-name="Grupo 44" clip-path="url(#clip-path)">
      <path id="Trazado_46" data-name="Trazado 46" d="M218.676,212.838A5.838,5.838,0,1,1,212.838,207a5.838,5.838,0,0,1,5.838,5.838" transform="translate(-182.338 -182.338)" fill="#fddcd1"/>
      <path id="Trazado_47" data-name="Trazado 47" d="M163.5,139.517a5.8,5.8,0,0,0-3.324-3.324,9.692,9.692,0,0,0-3.252-.6c-1.847-.084-2.4-.1-7.077-.1s-5.23.018-7.077.1a9.7,9.7,0,0,0-3.252.6,5.8,5.8,0,0,0-3.324,3.324,9.691,9.691,0,0,0-.6,3.252c-.084,1.847-.1,2.4-.1,7.077s.018,5.23.1,7.077a9.687,9.687,0,0,0,.6,3.252,5.8,5.8,0,0,0,3.324,3.324,9.68,9.68,0,0,0,3.252.6c1.847.084,2.4.1,7.077.1s5.231-.018,7.077-.1a9.679,9.679,0,0,0,3.252-.6,5.8,5.8,0,0,0,3.324-3.324,9.7,9.7,0,0,0,.6-3.252c.084-1.847.1-2.4.1-7.077s-.018-5.231-.1-7.077a9.679,9.679,0,0,0-.6-3.252m-13.653,19.322a8.993,8.993,0,1,1,8.993-8.993,8.993,8.993,0,0,1-8.993,8.993m9.349-16.24a2.1,2.1,0,1,1,2.1-2.1,2.1,2.1,0,0,1-2.1,2.1" transform="translate(-119.343 -119.346)" fill="#fddcd1"/>
      <path id="Trazado_48" data-name="Trazado 48" d="M30.5,0A30.5,30.5,0,1,0,61,30.5,30.5,30.5,0,0,0,30.5,0M47.908,37.72a12.85,12.85,0,0,1-.814,4.252,8.955,8.955,0,0,1-5.122,5.122,12.864,12.864,0,0,1-4.251.814c-1.868.085-2.464.106-7.221.106s-5.353-.02-7.221-.106a12.864,12.864,0,0,1-4.251-.814,8.956,8.956,0,0,1-5.122-5.122,12.85,12.85,0,0,1-.814-4.251c-.086-1.868-.106-2.465-.106-7.221s.02-5.353.106-7.221a12.851,12.851,0,0,1,.814-4.251,8.961,8.961,0,0,1,5.123-5.122,12.861,12.861,0,0,1,4.251-.814c1.868-.085,2.464-.106,7.221-.106s5.353.02,7.221.106a12.864,12.864,0,0,1,4.251.813,8.958,8.958,0,0,1,5.122,5.123,12.849,12.849,0,0,1,.814,4.251c.085,1.868.105,2.464.105,7.221s-.02,5.353-.106,7.22" transform="translate(0 0)" fill="#fddcd1"/>
    </g>
  </g>
</svg>
