<svg id="Group_41" data-name="Group 41" xmlns="http://www.w3.org/2000/svg" xmlns:xlink="http://www.w3.org/1999/xlink" width="217.245" height="157.398" viewBox="0 0 217.245 157.398">
  <defs>
    <clipPath id="clip-path">
      <rect id="Rectangle_124" data-name="Rectangle 124" width="217.245" height="157.398" fill="none"/>
    </clipPath>
  </defs>
  <path id="Path_27" data-name="Path 27" d="M98.3,369.255l1.691,5.072h-3.4Zm-1.525-3.014L92.55,378.5h2.665l.735-2.113h4.7l.7,2.113h2.756l-4.19-12.257Z" transform="translate(-55.933 -221.34)" fill="#e19478"/>
  <path id="Path_28" data-name="Path 28" d="M138.486,366.241V378.5H145.3v-2.057H141v-3.07h4.3v-2.057H141V368.3h4.3v-2.057Z" transform="translate(-83.695 -221.34)" fill="#e19478"/>
  <g id="Group_40" data-name="Group 40">
    <g id="Group_39" data-name="Group 39" clip-path="url(#clip-path)">
      <path id="Path_29" data-name="Path 29" d="M182.239,374.643a3.174,3.174,0,0,0-.974-2.372,6.9,6.9,0,0,0-2.554-1.36,8.557,8.557,0,0,1-1.434-.6,1.287,1.287,0,0,1-.753-1.158,1.332,1.332,0,0,1,1.507-1.287,1.447,1.447,0,0,1,1.6,1.526h2.536a3.835,3.835,0,0,0-4.134-3.75c-2.408,0-4.043,1.488-4.043,3.712,0,1.874.956,2.886,3.639,3.841a4.962,4.962,0,0,1,1.488.68,1.222,1.222,0,0,1,.5.974,1.461,1.461,0,0,1-1.618,1.3,1.525,1.525,0,0,1-1.672-1.433v-.167h-2.444c-.017,2.353,1.563,3.823,4.135,3.823,2.536,0,4.227-1.488,4.227-3.73" transform="translate(-105.083 -220.975)" fill="#e19478"/>
      <path id="Path_30" data-name="Path 30" d="M216.553,378.5V368.3h2.9v-2.058h-8.342V368.3h2.921v10.2Z" transform="translate(-127.588 -221.34)" fill="#e19478"/>
      <path id="Path_31" data-name="Path 31" d="M259.23,366.242h-2.517v5.183h-4.649v-5.183h-2.517V378.5h2.517v-5.017h4.649V378.5h2.517Z" transform="translate(-150.815 -221.34)" fill="#e19478"/>
      <path id="Path_32" data-name="Path 32" d="M301.086,368.3v-2.057h-6.817V378.5h6.817v-2.057h-4.3v-3.07h4.3v-2.058h-4.3V368.3Z" transform="translate(-177.843 -221.34)" fill="#e19478"/>
      <path id="Path_33" data-name="Path 33" d="M336.516,366.242h-8.342V368.3H331.1v10.2h2.518V368.3h2.9Z" transform="translate(-198.334 -221.34)" fill="#e19478"/>
      <rect id="Rectangle_122" data-name="Rectangle 122" width="2.517" height="12.257" transform="translate(145.048 144.901)" fill="#e19478"/>
      <path id="Path_34" data-name="Path 34" d="M398.3,367.971a4.044,4.044,0,0,1,2.866,1.267l1.636-1.652a5.977,5.977,0,0,0-4.631-1.949c-3.546,0-6.082,2.665-6.082,6.394a6.791,6.791,0,0,0,1.653,4.5,5.643,5.643,0,0,0,4.392,1.839,6.12,6.12,0,0,0,4.558-1.856l-1.526-1.727a3.393,3.393,0,0,1-2.737,1.249,3.8,3.8,0,0,1-3.787-4.06,3.683,3.683,0,0,1,3.658-4.007" transform="translate(-236.96 -220.974)" fill="#e19478"/>
      <path id="Path_35" data-name="Path 35" d="M440.24,370.911a8.526,8.526,0,0,1-1.434-.6,1.286,1.286,0,0,1-.753-1.158,1.332,1.332,0,0,1,1.507-1.287,1.447,1.447,0,0,1,1.6,1.526h2.536a3.835,3.835,0,0,0-4.134-3.75c-2.408,0-4.043,1.488-4.043,3.712,0,1.873.956,2.886,3.639,3.841a4.949,4.949,0,0,1,1.488.68,1.223,1.223,0,0,1,.5.975,1.461,1.461,0,0,1-1.618,1.3,1.525,1.525,0,0,1-1.672-1.433v-.166h-2.444c-.017,2.352,1.563,3.823,4.135,3.823,2.536,0,4.227-1.488,4.227-3.73a3.171,3.171,0,0,0-.975-2.372,6.9,6.9,0,0,0-2.553-1.36" transform="translate(-263.14 -220.975)" fill="#e19478"/>
      <path id="Path_36" data-name="Path 36" d="M8.684,225.68l17.749,26.753h8.494V210.149H26.244v26.372L8.557,210.149H0v42.284H8.684Z" transform="translate(0 -127.005)" fill="#fddcd1"/>
      <path id="Path_37" data-name="Path 37" d="M104.915,255.933c0,9.129,6.656,15.723,15.975,15.723a15.575,15.575,0,0,0,14.263-8.938l-7.417-2.03a7.834,7.834,0,0,1-14.453-2.79h22.947l.064-1.584c0-9.444-6.53-16.037-15.912-16.037-9.065,0-15.468,6.465-15.468,15.657m15.6-8.875a7.153,7.153,0,0,1,7.48,6.213H113.284c.76-3.994,3.359-6.213,7.226-6.213" transform="translate(-63.406 -145.212)" fill="#fddcd1"/>
      <path id="Path_38" data-name="Path 38" d="M214.413,261.411c0,3.1-1.774,5.006-4.753,5.006-2.916,0-4.882-2.219-4.882-5.515V242.835h-8.05v18.576c0,3.866,1.014,6.656,3.105,8.557,2.283,2.093,5.77,3.234,9.827,3.234a14.6,14.6,0,0,0,9.508-3.044c2.409-2.027,3.3-4.438,3.3-8.747V242.835h-8.051Z" transform="translate(-118.894 -146.759)" fill="#fddcd1"/>
      <path id="Path_39" data-name="Path 39" d="M304.85,245.271H290.714V210.149h-8.685v42.284H304.85Z" transform="translate(-170.446 -127.005)" fill="#fddcd1"/>
      <path id="Path_40" data-name="Path 40" d="M354.716,210.315a4.469,4.469,0,1,0,0,8.938,4.469,4.469,0,0,0,0-8.938" transform="translate(-211.654 -127.105)" fill="#fddcd1"/>
      <rect id="Rectangle_123" data-name="Rectangle 123" width="8.05" height="29.352" transform="translate(139.004 96.076)" fill="#fddcd1"/>
      <path id="Path_41" data-name="Path 41" d="M398.5,252.828c0-3.425,2.093-5.77,5.2-5.77a4.6,4.6,0,0,1,3.867,1.964,6.147,6.147,0,0,1,.7,3.425v18.193h8.051V252.068c0-4.818-.7-7.165-2.6-9.066a10.5,10.5,0,0,0-7.226-2.725c-3.677,0-5.833,1.266-7.988,4.626v-3.614h-8.05v29.352h8.05Z" transform="translate(-235.973 -145.213)" fill="#fddcd1"/>
      <path id="Path_42" data-name="Path 42" d="M485.247,240.276c-9.065,0-15.468,6.465-15.468,15.657,0,9.129,6.656,15.722,15.975,15.722a15.575,15.575,0,0,0,14.263-8.938l-7.416-2.03a7.834,7.834,0,0,1-14.453-2.79h22.947l.065-1.584c0-9.444-6.53-16.037-15.912-16.037m-7.1,12.995c.76-3.994,3.359-6.213,7.226-6.213a7.153,7.153,0,0,1,7.48,6.213Z" transform="translate(-283.914 -145.212)" fill="#fddcd1"/>
      <path id="Path_43" data-name="Path 43" d="M232.344,98.456a27.66,27.66,0,0,1-27.628-27.628h6.934a20.694,20.694,0,0,0,41.388,0h6.934a27.659,27.659,0,0,1-27.628,27.628" transform="translate(-123.721 -42.805)" fill="#e19478"/>
      <path id="Path_44" data-name="Path 44" d="M267.155,14.011h0a48.925,48.925,0,0,0-14.011,14.011,48.92,48.92,0,0,0-14.011-14.011A48.92,48.92,0,0,0,253.143,0,48.925,48.925,0,0,0,267.155,14.011Z" transform="translate(-144.521)" fill="#e19478"/>
    </g>
  </g>
</svg>
